<svg xmlns="http://www.w3.org/2000/svg" fill="none" viewBox="0 0 40 40">
  <g clip-path="url(#a)">
    <path fill="#FF9F0E" d="M1.875 16h36.25v-2.667H1.875V16Zm35.458-.792v1.17H40v-1.17h-2.667ZM33.03 37.333H6.971V40h26.058v-2.667ZM2.667 16.38v-1.171H0v1.17h2.667Zm5.056 21.418A47.893 47.893 0 0 1 2.667 16.38H0c0 7.85 1.827 15.592 5.339 22.613l2.384-1.195Zm-.752-.464c.32 0 .61.182.752.464l-2.384 1.195A1.827 1.827 0 0 0 6.97 40v-2.667Zm25.306.464a.84.84 0 0 1 .752-.464V40a1.82 1.82 0 0 0 1.632-1.008l-2.384-1.195Zm5.056-21.418a47.929 47.929 0 0 1-5.056 21.418l2.384 1.195A50.56 50.56 0 0 0 40 16.379h-2.667Zm.792-.38a.792.792 0 0 1-.792-.791H40a1.874 1.874 0 0 0-1.875-1.875V16Zm-36.25-2.666A1.875 1.875 0 0 0 0 15.208h2.667a.792.792 0 0 1-.792.792v-2.667Zm8.602 2.019 8-13.333-2.29-1.371-8 13.333 2.29 1.37ZM21.523 2.019l8 13.333 2.288-1.37-8-13.334-2.288 1.37Zm-8.19 24.648h13.334V24H13.333v2.667Z"/>
  </g>
  <defs>
    <clipPath id="a">
      <path fill="#fff" d="M0 0h40v40H0z"/>
    </clipPath>
  </defs>
</svg>
