<svg xmlns="http://www.w3.org/2000/svg" fill="none" viewBox="0 0 96 96">
  <path fill="#181817" d="M68.316 44.757a9.956 9.956 0 0 0-3.74-4.479c-1.198-.772-5.837-1.39-5.986 2.934 0 0-1.946.31-1.796 1.7 0 0-1.197 4.17 4.489 3.706 0 0 1.047 7.876 1.945 9.575 0 0 .45 1.544.599 3.089h2.394l.15-3.089s1.347.927 2.394 3.089h3.442c-.15-1.236-.3-2.317-.599-3.089 0 0 5.088 0 6.884-2.316 0 0 1.496 2.934 3.292 3.088v2.471h2.394c.15-.463.15-.926.3-1.699 0 0 .897.464 1.346 1.7h2.095c-.3-1.082-2.993-11.12-3.89-11.893 0 0 1.346-.154 1.795 1.545 0 0 .748 3.552 2.245 3.398 0 0 1.047-2.317-.748-5.251 0 0-.749-2.163-4.64-1.854l-11.222-.309a4.607 4.607 0 0 1-3.143-2.316ZM54.699 32.865c.898-1.236.748-3.09-.45-4.17-1.196-.927-2.992-.772-4.04.463-2.843 3.707-7.93 4.324-11.522 2.78l-1.945 5.56c6.135 2.47 13.617 1.235 17.957-4.633Zm-25.439-9.73c4.05 0 7.332-3.388 7.332-7.567C36.592 11.388 33.31 8 29.26 8s-7.333 3.388-7.333 7.568c0 4.179 3.283 7.567 7.333 7.567Z"/>
  <path fill="#181817" d="m33.6 62.98-6.286-2.625 3.741-10.965c-8.38-4.788-11.372-12.355-11.522-12.819-.898-2.316.15-4.787 2.394-5.714 2.245-.927 4.64.155 5.537 2.471.15.309 1.945 4.325 6.584 7.568l2.843-8.031c.3-.927.15-1.854-.448-2.626-5.387-6.177-11.672-8.494-18.556-6.332-1.945.618-3.292 2.162-3.741 4.17L8.16 60.201v.926l.3 14.672-3.293-.772C2.923 74.564.53 76.108.08 78.425c-.45 2.316 1.047 4.787 3.292 5.25l8.53 1.854c1.346.309 2.543 0 3.59-.927 1.048-.926 1.647-2.162 1.497-3.552l-.3-15.444 10.925 4.479V83.52c0 2.471 1.945 4.479 4.34 4.479 2.394 0 4.339-2.008 4.339-4.479V67.15c.15-1.854-1.048-3.398-2.694-4.17Z"/>
  <path fill="#181817" d="M45.122 46.147c-14.216-1.081-18.706-11.738-18.855-12.201-.599-1.544-2.245-2.162-3.741-1.544-1.497.617-2.095 2.316-1.497 3.86.3.618 5.986 14.518 23.793 15.908 1.646.154 2.993-1.081 2.993-2.78 0-1.699-1.047-3.089-2.693-3.243ZM70.71 26.07c-2.992.617-5.237 3.397-5.237 6.64h13.318c0-3.552-2.544-6.332-5.836-6.795-4.49-5.096-11.672-3.089-17.358 2.008.299.309.598.772.898 1.235 4.04-3.86 9.577-6.486 14.215-3.088Zm22.746 36.602h-42.05c-1.196 0-2.244 1.08-2.244 2.316 0 1.236 1.048 2.317 2.245 2.317h.449v3.861c0 6.023 4.788 10.965 10.624 10.965h20.202c5.836 0 10.624-4.942 10.624-10.965v-3.861h.45c1.197 0 2.244-1.081 2.244-2.317-.3-1.39-1.347-2.316-2.544-2.316ZM66.67 35.8l.15-1.39c0-.464-.15-.773-.599-.773-.449 0-.748.154-.748.618l-.15 1.39c0 .463.15.772.599.772.3 0 .599-.309.748-.618Zm-1.796 1.853-.15 1.39c0 .463.15.772.6.772.448 0 .748-.155.748-.618l.15-1.39c0-.463-.15-.772-.6-.772-.299 0-.598.309-.748.618Zm5.088-1.236c.449 0 .748-.309.748-.772V34.1c0-.463-.299-.772-.748-.772s-.748.309-.748.772v1.545c0 .309.449.772.748.772Zm-.898 2.78c0 .463.3.772.749.772.448 0 .748-.309.748-.772v-1.545c0-.463-.3-.772-.748-.772-.45 0-.749.31-.749.772v1.545Zm4.939-5.714c-.45 0-.749.309-.749.772v1.544c0 .464.3.773.749.773.448 0 .748-.31.748-.773v-1.544c0-.463-.3-.772-.748-.772Zm-.449 4.324v1.544c0 .464.299.773.748.773s.748-.31.748-.773v-1.544c0-.463-.3-.772-.748-.772-.599 0-.898.309-.748.772Zm4.339-4.324c-.449 0-.598.463-.598.772l.15 1.39c0 .309.299.618.748.618.448 0 .748-.464.748-.927l-.3-1.236c0-.463-.449-.772-.748-.617Zm-.149 4.478.15 1.39c0 .31.448.618.748.618.449 0 .748-.463.598-.772v-1.544c0-.464-.449-.618-.748-.618-.449.154-.748.463-.748.926Z"/>
</svg>
