<svg xmlns="http://www.w3.org/2000/svg" fill="none" viewBox="0 0 81 75">
  <path fill="#fff" d="M51.214 22.906c-.029.295-.208.618-.621.946l-12.165 9.652c-.865.687-2.92.847-2.92-.77V14.876c0-1.462 2.205-1.822 3.088-1.227l12.164 8.208c.464.313.566.688.454 1.05ZM65 27.981c-1.285 30.812-53.207 24.428-47.573-8.007C19.791 6.364 31.092-.793 43.51.07 57.486 1.04 64.746 13.754 65 27.777c0 .035-.023.064-.027.098.005.039.03.063.028.106Zm-2.606.398c-.21-9.925-3.73-20.645-12.812-24.911-12.037-5.654-26.218 1.014-29.277 14.757-2.736 12.291 3.349 23.189 14.48 27.13 11.868 4.203 26.961-2.41 27.61-16.976ZM8.219 69.773V71H2.53v-1.227h5.69Zm-5.39-10.148V71H1.32V59.625h1.508Zm10.405 11.531a4.159 4.159 0 0 1-1.601-.297 3.633 3.633 0 0 1-1.227-.851 3.789 3.789 0 0 1-.781-1.297 4.756 4.756 0 0 1-.273-1.64v-.329c0-.687.101-1.3.304-1.836.203-.541.48-1 .828-1.375a3.547 3.547 0 0 1 1.188-.851 3.41 3.41 0 0 1 1.375-.29c.604 0 1.125.105 1.562.313.443.208.805.5 1.086.875.282.37.49.807.625 1.313.136.5.203 1.046.203 1.64v.649h-6.312V66h4.867v-.11a3.603 3.603 0 0 0-.234-1.093 1.967 1.967 0 0 0-.625-.875c-.287-.23-.677-.344-1.172-.344a1.967 1.967 0 0 0-1.617.82 3.061 3.061 0 0 0-.461.993c-.11.39-.164.84-.164 1.351v.328c0 .401.054.779.164 1.133.114.35.278.656.492.922.219.266.482.474.789.625.313.151.667.227 1.063.227.51 0 .942-.105 1.296-.313.354-.208.664-.487.93-.836l.875.695c-.182.276-.414.54-.695.79a3.32 3.32 0 0 1-1.04.609c-.406.156-.887.234-1.445.234Zm9.961-1.601v-4.352c0-.333-.067-.622-.203-.867a1.329 1.329 0 0 0-.594-.578c-.265-.136-.593-.203-.984-.203a2.31 2.31 0 0 0-.96.187c-.272.125-.485.29-.642.492a1.079 1.079 0 0 0-.226.657H18.14c0-.303.078-.602.234-.899a2.61 2.61 0 0 1 .672-.804 3.358 3.358 0 0 1 1.062-.579c.417-.145.88-.218 1.391-.218.615 0 1.156.104 1.625.312a2.44 2.44 0 0 1 1.11.945c.27.417.406.94.406 1.57v3.938c0 .281.023.581.07.899.052.317.128.59.227.82V71H23.43a2.702 2.702 0 0 1-.172-.664 5.35 5.35 0 0 1-.063-.781Zm.25-3.68.016 1.016H22a5.38 5.38 0 0 0-1.102.101 2.52 2.52 0 0 0-.812.29c-.219.13-.385.294-.5.491-.115.193-.172.42-.172.68 0 .266.06.508.18.727.12.218.3.393.539.523.245.125.544.188.898.188.443 0 .834-.094 1.172-.282.339-.187.607-.416.805-.687.203-.271.312-.534.328-.79l.617.696c-.036.219-.135.461-.297.727a3.5 3.5 0 0 1-1.601 1.367 3.106 3.106 0 0 1-1.235.234c-.573 0-1.075-.112-1.508-.336a2.578 2.578 0 0 1-1-.898 2.378 2.378 0 0 1-.351-1.274c0-.453.088-.851.266-1.195.177-.349.432-.638.765-.867a3.64 3.64 0 0 1 1.203-.531c.47-.12.992-.18 1.57-.18h1.68Zm4.914-2V71h-1.445v-8.453h1.406l.04 1.328ZM31 62.5l-.008 1.344a2.081 2.081 0 0 0-.344-.047 3.654 3.654 0 0 0-.359-.016c-.333 0-.628.052-.883.157a1.83 1.83 0 0 0-.648.437 2.106 2.106 0 0 0-.422.672 3.233 3.233 0 0 0-.195.844l-.407.234c0-.51.05-.99.149-1.438a3.93 3.93 0 0 1 .476-1.187c.214-.349.485-.62.813-.813.333-.197.729-.296 1.187-.296.104 0 .224.013.36.039.135.02.229.044.281.07Zm2.781 1.852V71h-1.445v-8.453h1.367l.078 1.805Zm-.343 2.101-.602-.023a5.084 5.084 0 0 1 .258-1.602c.166-.495.4-.924.703-1.289a3.132 3.132 0 0 1 2.476-1.148c.417 0 .792.057 1.125.172.334.109.618.286.852.53.24.245.422.563.547.954.125.385.187.857.187 1.414V71h-1.453v-5.555c0-.442-.065-.797-.195-1.062a1.2 1.2 0 0 0-.57-.586c-.25-.125-.558-.188-.922-.188-.36 0-.688.076-.985.227a2.36 2.36 0 0 0-.757.625c-.209.266-.373.57-.493.914a3.34 3.34 0 0 0-.172 1.078Zm13.148-2.226V71h-1.453v-8.453h1.375l.078 1.68Zm-.297 2.226-.672-.023c.005-.578.08-1.112.227-1.602.146-.495.362-.924.648-1.289a2.88 2.88 0 0 1 1.07-.844c.428-.203.922-.304 1.485-.304.396 0 .76.057 1.094.172.333.109.622.283.867.523.245.24.435.547.57.922.136.375.203.828.203 1.36V71h-1.445v-5.563c0-.442-.076-.796-.227-1.062a1.295 1.295 0 0 0-.625-.578 2.256 2.256 0 0 0-.953-.188c-.427 0-.784.076-1.07.227a1.81 1.81 0 0 0-.688.625 2.82 2.82 0 0 0-.375.914 5.103 5.103 0 0 0-.109 1.078Zm5.477-.797-.97.297c.006-.463.082-.909.227-1.336.151-.427.368-.807.649-1.14a3.068 3.068 0 0 1 1.055-.79c.416-.197.893-.296 1.43-.296a3.7 3.7 0 0 1 1.202.18c.355.12.651.304.891.554.245.245.43.56.555.945.125.386.187.844.187 1.375V71H55.54v-5.57c0-.474-.075-.842-.227-1.102a1.18 1.18 0 0 0-.624-.555 2.5 2.5 0 0 0-.954-.164c-.317 0-.599.055-.843.164-.245.11-.45.26-.618.454a1.98 1.98 0 0 0-.382.648 2.409 2.409 0 0 0-.125.781Zm7.03 1.211v-.18c0-.609.09-1.174.267-1.695.177-.526.432-.982.765-1.367.333-.39.737-.693 1.211-.906a3.758 3.758 0 0 1 1.594-.328c.594 0 1.127.109 1.601.328.48.213.886.515 1.22.906.338.385.596.841.773 1.367.177.521.265 1.086.265 1.695v.18c0 .61-.088 1.175-.265 1.695a4.071 4.071 0 0 1-.774 1.368 3.543 3.543 0 0 1-1.21.906c-.47.213-1 .32-1.595.32a3.856 3.856 0 0 1-1.601-.32 3.624 3.624 0 0 1-1.219-.906 4.13 4.13 0 0 1-.766-1.368 5.234 5.234 0 0 1-.265-1.695Zm1.446-.18v.18c0 .422.05.82.149 1.195.099.37.247.698.445.985.203.286.456.513.758.68.302.161.653.242 1.054.242a2.15 2.15 0 0 0 1.04-.242c.302-.167.552-.394.75-.68a3.18 3.18 0 0 0 .445-.984c.104-.376.156-.774.156-1.196v-.18c0-.416-.052-.81-.156-1.18a3.038 3.038 0 0 0-.453-.991 2.154 2.154 0 0 0-.75-.688 2.105 2.105 0 0 0-1.047-.25c-.396 0-.745.083-1.047.25a2.25 2.25 0 0 0-.75.688 3.139 3.139 0 0 0-.445.992 4.55 4.55 0 0 0-.149 1.18Zm9.508-2.812V71h-1.445v-8.453h1.406l.039 1.328Zm2.64-1.375-.007 1.344a2.081 2.081 0 0 0-.344-.047 3.658 3.658 0 0 0-.36-.016c-.333 0-.627.052-.882.157a1.83 1.83 0 0 0-.649.437 2.105 2.105 0 0 0-.421.672 3.229 3.229 0 0 0-.196.844l-.406.234c0-.51.05-.99.148-1.438.105-.447.264-.843.477-1.187.213-.349.484-.62.813-.813.333-.197.729-.296 1.187-.296.104 0 .224.013.36.039.135.02.228.044.28.07Zm4.688 8.656a4.158 4.158 0 0 1-1.601-.297 3.632 3.632 0 0 1-1.227-.851 3.787 3.787 0 0 1-.781-1.297 4.756 4.756 0 0 1-.274-1.64v-.329c0-.687.102-1.3.305-1.836.203-.541.48-1 .828-1.375a3.548 3.548 0 0 1 1.188-.851 3.4 3.4 0 0 1 1.375-.29c.604 0 1.125.105 1.562.313.443.208.805.5 1.086.875.281.37.49.807.625 1.313.135.5.203 1.046.203 1.64v.649h-6.312V66h4.867v-.11a3.607 3.607 0 0 0-.234-1.093 1.965 1.965 0 0 0-.626-.875c-.286-.23-.677-.344-1.171-.344a1.966 1.966 0 0 0-1.618.82 3.07 3.07 0 0 0-.46.993c-.11.39-.165.84-.165 1.351v.328c0 .401.055.779.165 1.133.114.35.278.656.492.922.218.266.481.474.789.625.312.151.666.227 1.062.227.51 0 .943-.105 1.297-.313.354-.208.664-.487.93-.836l.875.695c-.182.276-.414.54-.695.79a3.32 3.32 0 0 1-1.04.609c-.406.156-.888.234-1.445.234Z"/>
</svg>
