<svg xmlns="http://www.w3.org/2000/svg" fill="none" viewBox="0 0 72 48">
  <path fill="#839AA9" d="M68.055 20c-.079-2.988-3.008-5.96-8.877-8 .401-.82 0-1.088 0-2 0-3.534-3.072-7-6.904-7-.864 0-1.167.709-1.973 1-1.29-1.454-3.652-2-5.917-2-1.027 0-2.032-.347-2.96 0-1.613-1.337-3.621-2-5.917-2-3.095 0-6.352 1.815-7.89 4-3.64-.398-6.65.394-7.891 3-3.05.055-5.535 2.305-5.918 5-6.359 2.067-9.78 4.878-9.863 8L0 35v1c0 6.973 16.306 12 36.493 12S72 42.972 72 36l-3.945-16ZM19.726 9c-.052-.003.052 0 0 0h.986V8c.781-2.072 3.092-3 5.918-3 .398 0 .574-.061.986 0h.987c1.247-2.017 4.081-4 6.904-4 2.132 0 3.53.71 4.931 2l.987 1V3c.867-.377 1.962 0 2.959 0 2.066 0 3.925.637 4.931 2h.986c.78-.34 1.12 0 1.973 0 3.135 0 5.918 2.173 5.918 5 0 .928-.463 1.208-.986 2-.002.002.001.998 0 1-.04.06.041-.059 0 0v1h.986c2.476.342 3.945 1.694 3.945 3 0 .785-.475.647-.986 1-.082.056.072-.044 0 0l-1.973 1 1.973 1c1.112.517.986 1.113.986 2 0 1.322-2.516 3-4.931 3-1.102.377-1.795.692-2.96 1-4.945 1.302-10.812 2-16.767 2-10.185 0-18.726-2.249-21.698-3-.685-.173-.968.006-.987 0-2.706 0-4.931-2.574-4.931-5s2.225-4 4.931-4c-.163-.016.17 0 0 0h.987v-1c-.318-.585-.987-1.361-.987-2-.002.037 0-.038 0 0 .253-2.158 2.426-4 4.932-4Zm-5.918 5c-.004-.027.004.027 0 0-.006-.042.006.042 0 0 .037.22-.066-.215 0 0 .001.002 0-.002 0 0-3.215.193-5.918 2.993-5.918 6 0 3.103 3.542 5.957 6.904 6 .154.043.457-.134.987 0 3.038.768 11.384 3 21.699 3-.002 0 .001 0 0 0 7.449 0 13.835-.995 19.726-3 2.916-.04 6.904-1.739 6.904-4 0-.278.072-.735 0-1-.215-.793-1.199-1.443-1.973-2 .768-.69.986-1.132.986-2 0-.062.005-.938 0-1-.003-.052.007.05 0 0-.008-.06.012.059 0 0-.011-.056.015.056 0 0-.003-.013.004.014 0 0 2.37 1.417 3.946 2.428 3.946 4 0 4.77-13.082 10-31.562 10S4.932 24.77 4.932 20c0-2.47 3.336-4.135 8.876-6Zm21.699 33C16.76 47 1.12 42.015.987 36l3.945-13c3.032 5.088 14.873 9 30.575 9 15.7 0 28.53-3.91 31.562-9l3.945 13c-.135 6.016-16.76 11-35.507 11Z"/>
  <path fill="#839AA9" d="M46.356 36c0-1.694-1.32-3-2.959-3-1.585 0-2.88 1.379-2.959 3h-9.863c-.078-1.621-1.372-3-2.959-3-1.636 0-2.959 1.306-2.959 3 0 .989.284 1.438.987 2-.703.562-.986 2.012-.986 3 0 1.694 1.322 3 2.958 3 1.587 0 2.882-1.379 2.96-3h9.862c.079 1.621 1.374 3 2.96 3 1.638 0 2.958-1.306 2.958-3 0-.987-.285-2.438-.986-3 .701-.562.986-1.01.986-2Zm-.986 5c0 .987-1.018 2-1.973 2-.952 0-1.972-1.013-1.972-2-.024.118 0-.118 0 0v-1H29.589v1c0-.118.023.118 0 0 0 .987-1.018 2-1.973 2-.953 0-1.972-1.013-1.972-2 0-.985 1.019-2 1.972-2v-1c-.953 0-1.972-1.015-1.972-2 0-.987 1.019-2 1.972-2 .955 0 1.973 1.013 1.973 2 0 .12.023-.118 0 0v1h11.836v-1c-.024-.12 0 .118 0 0 0-.987 1.02-2 1.972-2 .955 0 1.973 1.013 1.973 2 0 .985-1.018 2-1.973 2v1c.955 0 1.973 1.014 1.973 2Z"/>
</svg>
