<svg xmlns="http://www.w3.org/2000/svg" fill="none" viewBox="0 0 96 96">
  <path fill="#181817" d="M63.3 28.088c-.253-1.113-.946-1.95-1.9-2.294-.067-.025-.139-.028-.208-.047.683-3.107 2.61-14.403-3.7-21.013C53.833.904 48.127-.613 40.538.224a1.3 1.3 0 0 0-.449-.095C34.13-.063 29.569 1.58 26.578 5.008c-5.859 6.712-3.737 18.04-3.126 20.725-.09.023-.183.029-.27.06-.955.346-1.647 1.182-1.901 2.295-.227.992-.1 2.138.355 3.225.834 1.995 2.523 3.27 4.144 3.27.174 0 .346-.016.517-.046 1.376 4.072 3.67 7.458 7.46 9.537v4.174h-1.969v11.775h21.006V48.248h-1.97V44.1c3.798-2.076 6.094-5.472 7.468-9.561.169.029.34.043.51.043 1.62 0 3.31-1.274 4.145-3.268.455-1.088.58-2.234.355-3.226Zm-39.859 2.57c-.314-.752-.411-1.553-.265-2.195.117-.507.374-.868.707-.989a.867.867 0 0 1 .294-.048c.189 0 .399.053.615.152.222 1.797.538 3.54.977 5.195-.742-.014-1.78-.808-2.328-2.115Zm28.495 19.394c-1.928 1.886-5.521 3.157-9.646 3.157-4.124 0-7.717-1.271-9.645-3.157h2.08c.536 0 .97-.404.97-.902v-4.176c1.89.723 4.086 1.175 6.644 1.295 2.518-.12 4.68-.564 6.546-1.274v4.155c0 .498.434.902.97.902h2.08Zm5.952-23.429a51.062 51.062 0 0 1-.207 1.642 36.919 36.919 0 0 1-.775 3.852c-.118.458-.252.896-.389 1.331-1.188 3.789-3.06 6.74-5.95 8.628-.428.278-.89.521-1.362.753-1.9.935-4.153 1.51-6.866 1.639-2.706-.129-4.959-.692-6.86-1.61a13.018 13.018 0 0 1-1.448-.8c-2.897-1.89-4.774-4.836-5.964-8.616a27.33 27.33 0 0 1-.39-1.332 36.717 36.717 0 0 1-.776-3.843 67.776 67.776 0 0 1-.576-6.312c.228-1.323.56-2.42.956-3.32a14.655 14.655 0 0 0 3.399-1.003c.239.307.645.502 1.058.473.215-.01 3.071-.162 6.09-1.264-.014.127-.006.258.027.388.13.505.609.865 1.167.877.26.008 5.392.066 8.559-3.304 1.222 2.724 3.966 7.185 9.562 9.985l.834 1.07c-.026.26-.06.51-.09.766Zm3.25 4.035c-.544 1.304-1.58 2.096-2.32 2.114.436-1.655.75-3.397.972-5.194.216-.1.425-.152.614-.152.104 0 .203.016.292.048.458.166.64.69.709.989.146.642.049 1.443-.267 2.195Zm-21.047 2.349v-2.529c0-.498.434-.902.969-.902.535 0 .97.404.97.902v2.324h1.49c.536 0 .97.404.97.902s-.434.902-.97.902h-1.71c-.948 0-1.72-.717-1.72-1.6Zm-4.633-5.8c0 .97-.846 1.756-1.888 1.756-1.043 0-1.888-.786-1.888-1.756s.845-1.757 1.888-1.757c1.042 0 1.888.787 1.888 1.757Zm17.44 0c0 .97-.844 1.756-1.887 1.756-1.043 0-1.888-.786-1.888-1.756s.845-1.757 1.888-1.757 1.888.787 1.888 1.757Zm-5.862 11.356c0 1.456-2.451 1.975-4.746 1.975-2.294 0-4.745-.52-4.745-1.975 0-.498.434-.902.97-.902.432 0 .798.263.923.627.324.178 1.344.446 2.852.446 1.509 0 2.529-.268 2.853-.447.125-.363.491-.626.924-.626.535 0 .97.404.97.902Zm48.638 28.131a2.42 2.42 0 0 0-1.229-.991 2.158 2.158 0 0 0-.285-1.488 2.42 2.42 0 0 0-1.228-.991c.08-.496 0-1.018-.286-1.488s-.728-.8-1.228-.989a2.16 2.16 0 0 0-.284-1.488 2.456 2.456 0 0 0-1.506-1.09 2.644 2.644 0 0 0-1.89.22l-.982.52a2.818 2.818 0 0 0-.738-.755v-.986h5.493c.536 0 .97-.404.97-.903 0-.498-.434-.902-.97-.902h-5.493v-.901h5.493c.536 0 .97-.405.97-.903 0-.497-.434-.901-.97-.901h-5.493v-.902h5.493c.536 0 .97-.404.97-.902s-.434-.902-.97-.902h-5.493v-.902h5.493c.536 0 .97-.404.97-.902s-.434-.902-.97-.902h-5.493l.006-.902h5.487c.536 0 .97-.404.97-.902s-.434-.902-.97-.902h-5.487c-1.09 0-1.945.925-1.945 2.105v4.345c-.083-1.025-.491-2.054-1.211-2.94-1.771-2.183-4.805-2.842-6.759-1.468-1.018.716-1.535 1.845-1.557 3.07-1.272-.315-2.582-.163-3.601.553-.982.69-1.558 1.809-1.58 3.069-.018 1.166.424 2.367 1.247 3.382.823 1.013 1.944 1.738 3.156 2.04.405.1.81.15 1.207.15.883 0 1.719-.247 2.397-.723.064-.046.11-.105.17-.154l3.041 3.393-1.099 2.202c-.084.135-.16.273-.228.417l-6.392 3.373L61.963 50.69a5.781 5.781 0 0 0-.944-1.08 3.912 3.912 0 0 0-2.377-1.347 6.552 6.552 0 0 0-2.94-.228v12.088c.237.068.456.168.647.301.357.25.619.601.724 1.015l.245.953 4.524 17.638v-7.554l3.634 5.552c1.154 1.763 3.175 2.742 5.25 2.742 1.028 0 2.07-.24 3.025-.745l11.64-6.145c.048-.025.085-.06.133-.087.091.005.182.017.274.017.757 0 1.525-.177 2.23-.55l2.188-1.156.133.15c.442.492 1.222.575 1.772.189l.4-.282.423-.296.4-.281c.402-.282.554-.763.445-1.228l.95-.503a2.332 2.332 0 0 0 1.17-1.4 2.158 2.158 0 0 0-.235-1.758Zm-5.642-4.165.178-.094a.588.588 0 0 1 .418-.048.542.542 0 0 1 .333.24c.15.246.057.56-.207.7l-.177.094-1.277.675-1.083.573a.603.603 0 0 1-.418.048.542.542 0 0 1-.332-.241.495.495 0 0 1 .206-.7l1-.528 1.36-.72Zm-3.112-1.405.024-.048c.018-.036.024-.074.04-.11.018-.042.03-.085.046-.128l1.21-.64.456-.241a.591.591 0 0 1 .418-.048.542.542 0 0 1 .334.24.474.474 0 0 1 .005.477.513.513 0 0 1-.213.224l-.696.368-.988.522-.853.45a.58.58 0 0 1-.344.054l.56-1.12Zm-11.1-4.92c-.468.326-1.064.247-1.379.168-.648-.161-1.29-.586-1.76-1.166s-.734-1.27-.724-1.895c.005-.302.083-.858.552-1.187.234-.164.524-.242.837-.242.76 0 1.666.457 2.301 1.24.898 1.106.976 2.517.173 3.082Zm2.019-4.621c-.897-1.106-.976-2.517-.172-3.082.235-.164.522-.243.837-.243.76 0 1.665.458 2.301 1.241.471.58.735 1.27.725 1.894-.005.303-.084.858-.552 1.187-.468.327-1.064.247-1.378.169-.65-.162-1.29-.587-1.761-1.166Zm2.496 7.246c-.442-.545-.326-1.32.26-1.732.585-.411 1.418-.303 1.86.242.155.19.218.41.24.63-.363.22-.669.516-.86.896l-.21.422c-.476.078-.98-.075-1.29-.458Zm7.621 12.393-.887.468c-1.238.658-2.825.25-3.532-.904l-2.396-3.922a2.248 2.248 0 0 1-.245-1.831l.01-.022.319-.638 2.369-4.748c.068-.136.254-.224.485-.245.17-.015.362.003.561.09.2.086.338.212.436.343.022.03.048.057.064.088.082.15.102.3.046.414l-1.984 3.962-.396.79c-.038.075-.046.154-.06.233-.07.39.125.79.53.965.132.057.271.084.407.084.139 0 .271-.035.395-.087v4.284c0 .498.435.902.97.902.535 0 .97-.404.97-.902V67.42l2.338 2.61.598.666-.998.527Zm1.774-4.075a.588.588 0 0 1-.418.048.542.542 0 0 1-.332-.241.495.495 0 0 1 .206-.7l1.23-.65 1.13-.597.178-.094a.586.586 0 0 1 .417-.048.54.54 0 0 1 .332.24c.15.247.058.56-.205.7l-.177.094-1.048.554-1.313.694Zm4.31.828a.517.517 0 0 1-.259.308h-.001l-.455.24-.539.286-1.54.816a.568.568 0 0 1-.366.052.548.548 0 0 1-.387-.245.496.496 0 0 1 .207-.7l1.459-.771.393-.208.685-.362a.588.588 0 0 1 .27-.067c.015 0 .03.004.044.005a.546.546 0 0 1 .437.256c.072.12.091.257.052.39Zm-32.387 26.11-.54-11.683a.456.456 0 0 0-.015-.092l-5.282-20.594a.526.526 0 0 0-.114-.21c-.144-.17-.394-.28-.674-.28H29.552c-.28 0-.53.111-.673.28a.527.527 0 0 0-.115.209l-4.639 18.09-.585-.308-.136-.071c-.152-.078-.305-.141-.458-.205l4.317-16.832.18-.706.064-.246a1.78 1.78 0 0 1 .725-1.014c.19-.133.41-.233.647-.301V48.079c-2.262-.682-4.843-.105-6.51 1.663L1.526 71.84C.369 73.066-.169 74.692.047 76.31c.216 1.62 1.166 3.075 2.61 4l11.957 7.667c.373.239.768.42 1.172.572a6.41 6.41 0 0 0 1.73 1.31l4.212 2.184.632.327.378.196.223.115c.01.006.022.007.033.013l-.065 1.392-.061 1.293a.506.506 0 0 0 .166.385.91.91 0 0 0 .635.236H60.91a.911.911 0 0 0 .635-.236.504.504 0 0 0 .167-.385l-.06-1.295ZM15.309 74.547l7.43-7.877v12.46a6.457 6.457 0 0 0-.733-.227c-.143-.11-.268-.234-.424-.334l-6.274-4.022Zm14.55 10.682a.346.346 0 0 1-.45.12l-4.407-2.285c-.245-.126-.532-.118-.79-.025a1.103 1.103 0 0 0-.574.448.846.846 0 0 0-.087.687.92.92 0 0 0 .46.543l.004.002 5.276 2.735a.308.308 0 0 1 .155.185.283.283 0 0 1-.028.233.327.327 0 0 1-.198.145.353.353 0 0 1-.25-.026l-5.156-2.673-.124-.065a.882.882 0 0 0-.341-.088 1.103 1.103 0 0 0-.61.148c-.018.01-.037.017-.053.027a1.05 1.05 0 0 0-.36.337.85.85 0 0 0-.088.687c.06.197.2.359.378.477.03.02.05.05.083.066l.04.02.045.024.469.243 3.853 1.997a.306.306 0 0 1 .156.186.281.281 0 0 1-.028.232.348.348 0 0 1-.448.119l-3.565-1.847-.483-.25-.155-.08-.268-.14-.364-.188-.066-.034c-.307-.159-.777-.098-1.076.076a.888.888 0 0 0-.456.787.853.853 0 0 0 .16.462c.084.123.196.23.337.304l1.003.52.632.327.253.131.383.199 1.105.573a.31.31 0 0 1 .155.184.287.287 0 0 1-.028.232.346.346 0 0 1-.449.12l-.815-.422-.35-.182-.286-.148-.631-.327-2.308-1.196-1.055-.547a4.354 4.354 0 0 1-2-2.107c-.526-1.205-.466-2.522.157-3.524a4.6 4.6 0 0 1 3.847-2.12c.659 0 1.345.153 2.022.487.02.01.04.015.059.025l.194.102.334.175.586.307.347.183 5.724 3.002a.31.31 0 0 1 .156.185.281.281 0 0 1-.027.232Zm23.97-4.473c-.029 1.585-1.672 2.276-2.51 1.053l-.843-1.23a7.18 7.18 0 0 1-1.006 2.039c.003.097.014.192.014.29 0 4.088-3.22 7.403-7.194 7.403-3.973 0-7.193-3.315-7.193-7.403 0-.098.01-.193.014-.29a7.163 7.163 0 0 1-1.008-2.038l-.842 1.229c-.838 1.224-2.481.532-2.51-1.053a43.967 43.967 0 0 0-.094-2.26c-.183-2.645 3.686-3.885 5.43-4.309 1.551-1.037 3.752-1.504 6.203-1.504 2.45 0 4.652.467 6.203 1.504 1.744.424 5.613 1.664 5.43 4.308a44.663 44.663 0 0 0-.095 2.261Zm-14.486 5.491c0-1.114 1.32-2.017 2.947-2.017 1.628 0 2.948.904 2.948 2.017 0 1.114-1.32 2.017-2.948 2.017s-2.947-.903-2.947-2.017Z"/>
</svg>
