<svg xmlns="http://www.w3.org/2000/svg" aria-hidden="true" overflow="hidden" style="position:absolute;width:0;height:0">
  <defs>
    <symbol id="icon-arrow-go" viewBox="0 0 32 32">
      <path d="M22.467 28.133c.333-.333.5-.728.5-1.184s-.167-.849-.5-1.183L12.7 15.999l9.8-9.8c.311-.311.467-.7.467-1.167s-.167-.867-.5-1.2c-.333-.333-.728-.5-1.184-.5s-.849.167-1.183.5L8.9 15.065c-.133.133-.228.278-.284.433s-.083.322-.083.5.028.344.083.5c.056.156.151.3.284.433l11.233 11.233c.311.311.694.467 1.149.467s.851-.167 1.184-.5z"/>
    </symbol>
    <symbol id="icon-basket" viewBox="0 0 31 32">
      <path d="M1.467 12.878H29.76v-2.081H1.467v2.081zm27.675-.618v.914h2.081v-.914h-2.081zm-3.359 17.268H5.445v2.081h20.338v-2.081zM2.085 13.174v-.914H.004v.914h2.081zm3.946 16.717a37.382 37.382 0 0 1-3.946-16.717H.004a39.45 39.45 0 0 0 4.167 17.649l1.861-.932zm-.587-.363c.25 0 .477.142.587.362l-1.861.932a1.43 1.43 0 0 0 1.273.787v-2.081zm19.752.363a.658.658 0 0 1 .587-.363v2.081c.541 0 1.032-.304 1.274-.787l-1.861-.932zm3.946-16.717a37.412 37.412 0 0 1-3.946 16.717l1.861.932a39.466 39.466 0 0 0 4.167-17.649h-2.081zm.618-.296a.618.618 0 0 1-.618-.618h2.081a1.463 1.463 0 0 0-1.464-1.464v2.081zM1.467 10.797a1.463 1.463 0 0 0-1.464 1.464h2.081a.618.618 0 0 1-.618.618v-2.081zm6.714 1.575 6.244-10.406-1.788-1.07-6.244 10.407 1.788 1.07zm8.621-10.406 6.244 10.406 1.786-1.07L18.588.895l-1.786 1.07zM10.41 21.203h10.406v-2.081H10.41v2.081z"/>
    </symbol>
    <symbol id="icon-facebook" viewBox="0 0 32 32">
      <path d="M29 16c0-2.571-.762-5.085-2.191-7.222S23.35 4.974 20.975 3.99A13.004 13.004 0 0 0 6.808 6.808a13.002 13.002 0 0 0 1.97 20.001A13.003 13.003 0 0 0 16 29a13.012 13.012 0 0 0 13-13zM17 26.95V19h3a.997.997 0 0 0 1-1 .997.997 0 0 0-1-1h-3v-3a2 2 0 0 1 2-2h2a.997.997 0 0 0 1-1 .997.997 0 0 0-1-1h-2a4.014 4.014 0 0 0-4 4v3h-3a.997.997 0 0 0-1 1 .997.997 0 0 0 1 1h3v7.95a11.003 11.003 0 0 1-9.989-11.455 10.996 10.996 0 0 1 18.587-7.453c2.047 1.956 3.261 4.625 3.389 7.453s-.838 5.596-2.698 7.73-4.472 3.468-7.291 3.725z"/>
    </symbol>
    <symbol id="icon-star" viewBox="0 0 34 32">
      <path d="m17.067 0 3.832 11.793h12.4l-10.032 7.288 3.832 11.793-10.032-7.288-10.032 7.288 3.832-11.793L.835 11.793h12.4L17.067 0z"/>
    </symbol>
    <symbol id="icon-instagram" viewBox="0 0 32 32">
      <path d="M16 10.25a5.746 5.746 0 0 0-5.312 3.55 5.75 5.75 0 1 0 5.313-3.55zm0 10a4.248 4.248 0 0 1-3.005-7.255 4.253 4.253 0 0 1 6.539.644A4.25 4.25 0 0 1 20.25 16 4.265 4.265 0 0 1 16 20.25zm5.5-16.5h-11a6.75 6.75 0 0 0-6.75 6.75v11a6.75 6.75 0 0 0 6.75 6.75h11a6.75 6.75 0 0 0 6.75-6.75v-11a6.75 6.75 0 0 0-6.75-6.75zm5.25 17.75a5.247 5.247 0 0 1-5.25 5.25h-11a5.247 5.247 0 0 1-5.25-5.25v-11a5.247 5.247 0 0 1 5.25-5.25h11a5.247 5.247 0 0 1 5.25 5.25v11zm-3-12a1.243 1.243 0 0 1-.772 1.154 1.248 1.248 0 0 1-1.704-.911 1.256 1.256 0 0 1 .531-1.283 1.253 1.253 0 0 1 1.578.155c.234.234.366.552.366.884z"/>
    </symbol>
    <symbol id="icon-bone" viewBox="0 0 73 32">
      <path d="M72.673 13.749c.834-1.892.379-4.677 0-6.753-.295-1.765-1.027-3.222-2.124-4.502S67.831.608 66.302.243c-1.214-.314-3.038-.336-4.247 0s-1.168 1.335-2.124 2.251c-2.383 2.173-5.455 2.326-8.494 2.251H21.706c-3.039.076-6.112-.078-8.494-2.251-.956-.916-.914-1.915-2.124-2.251s-3.034-.314-4.247 0c-1.529.365-3.151.971-4.247 2.251S.766 5.231.47 6.996c-.38 2.076-.834 4.861 0 6.753.302.681 2.124 1.486 2.124 2.251S.773 17.57.47 18.251c-.832 1.892-.378 4.677 0 6.753.296 1.766 1.028 3.22 2.124 4.502s2.718 1.882 4.247 2.251c1.214.314 3.038.336 4.247 0s1.168-1.335 2.124-2.251c2.382-2.176 5.454-2.322 8.494-2.251h29.731c3.04-.071 6.113.075 8.494 2.251.956.916.914 1.915 2.124 2.251s3.034.314 4.247 0c1.529-.369 3.151-.969 4.247-2.251s1.828-2.736 2.124-4.502c.378-2.076.832-4.861 0-6.753-.302-.681-2.124-1.486-2.124-2.251s1.822-1.57 2.124-2.251z"/>
    </symbol>
    <symbol id="icon-arrow-left" viewBox="0 0 32 32">
      <path d="m12.586 27.414-10-10a2 2 0 0 1 0-2.828l10-10a2 2 0 1 1 2.828 2.828L8.828 14H28a2 2 0 1 1 0 4H8.828l6.586 6.586c.39.39.586.902.586 1.414s-.195 1.024-.586 1.414a2 2 0 0 1-2.828 0z"/>
    </symbol>
    <symbol id="icon-email" viewBox="0 0 32 32">
      <path d="M16 29.333c-1.822 0-3.544-0.35-5.167-1.050-1.65-0.713-3.060-1.68-4.249-2.867l0 0c-1.187-1.189-2.154-2.599-2.833-4.163l-0.034-0.087c-0.664-1.503-1.050-3.255-1.050-5.097 0-0.024 0-0.049 0-0.073l-0 0.004c0-1.845 0.35-3.572 1.050-5.183 0.716-1.644 1.682-3.048 2.867-4.233l-0 0c1.189-1.187 2.599-2.154 4.163-2.834l0.087-0.034c1.622-0.7 3.344-1.050 5.166-1.050 1.844 0 3.572 0.35 5.183 1.050s3.022 1.656 4.233 2.868c1.185 1.185 2.151 2.589 2.833 4.146l0.034 0.087c0.7 1.611 1.050 3.338 1.050 5.183v1.933c0 1.311-0.45 2.428-1.349 3.35s-2.006 1.384-3.317 1.384c-0.010 0-0.022 0-0.034 0-0.804 0-1.561-0.198-2.227-0.547l0.026 0.013c-0.678-0.347-1.245-0.818-1.692-1.389l-0.008-0.011c-1.199 1.195-2.853 1.934-4.68 1.934-0.019 0-0.037-0-0.056-0l0.003 0c-1.845 0-3.416-0.65-4.716-1.951-1.3-1.3-1.95-2.872-1.95-4.716s0.65-3.417 1.95-4.717 2.871-1.95 4.716-1.95c1.844 0 3.417 0.65 4.717 1.95s1.95 2.873 1.95 4.717v1.933c0 0.645 0.2 1.15 0.6 1.516 0.4 0.367 0.866 0.551 1.4 0.551s1-0.184 1.4-0.55c0.4-0.367 0.6-0.872 0.6-1.517v-1.933c0-2.911-1.050-5.417-3.151-7.517s-4.605-3.15-7.516-3.15-5.417 1.050-7.517 3.15c-2.1 2.1-3.15 4.606-3.15 7.517s1.050 5.416 3.15 7.516c2.1 2.1 4.606 3.15 7.517 3.15h6.667v2.667h-6.667zM16 20c1.111 0 2.055-0.389 2.833-1.167 0.778-0.777 1.167-1.722 1.167-2.833s-0.389-2.056-1.167-2.833c-0.777-0.778-1.722-1.167-2.833-1.167s-2.056 0.389-2.833 1.167c-0.778 0.777-1.167 1.722-1.167 2.833s0.389 2.055 1.167 2.833c0.777 0.778 1.722 1.167 2.833 1.167z"></path>
    </symbol>
    <symbol id="icon-name" viewBox="0 0 32 32">
      <path d="M11.384 9.714c0-1.125 0.446-2.204 1.24-3 0.766-0.767 1.825-1.242 2.995-1.242s2.229 0.475 2.995 1.242l0 0c0.767 0.768 1.241 1.829 1.241 3s-0.474 2.232-1.241 3l0-0c-0.766 0.767-1.825 1.242-2.995 1.242s-2.229-0.475-2.995-1.242l-0-0c-0.766-0.768-1.24-1.828-1.24-2.999 0-0 0-0.001 0-0.001v0zM15.619 3.048c-1.838 0-3.502 0.746-4.706 1.952l-0 0c-1.205 1.207-1.95 2.873-1.95 4.714s0.745 3.507 1.95 4.714l-0-0c1.204 1.206 2.868 1.951 4.706 1.951s3.502-0.746 4.706-1.951l0-0c1.205-1.207 1.95-2.873 1.95-4.714s-0.745-3.507-1.95-4.714l0 0c-1.204-1.206-2.868-1.952-4.706-1.952h-0zM5.333 22.44c0-0.964 0.383-1.889 1.064-2.57 0.656-0.658 1.564-1.066 2.567-1.066h13.31c0.963 0 1.887 0.383 2.567 1.065 0.657 0.659 1.064 1.568 1.064 2.572 0 0 0 0 0 0v-0 0.273c-0.003 0.114-0.010 0.226-0.024 0.339-0.025 0.21-0.070 0.494-0.158 0.831-0.25 0.937-0.666 1.755-1.22 2.46l0.011-0.015c-1.415 1.82-4.079 3.384-8.895 3.384s-7.478-1.563-8.895-3.384c-0.543-0.69-0.96-1.508-1.199-2.398l-0.011-0.047c-0.086-0.316-0.149-0.688-0.176-1.069l-0.001-0.019c-0.001-0.023-0.002-0.052-0.002-0.080v-0.029l-0.002-0.010v-0.236zM7.753 22.656v0.015c0.017 0.204 0.052 0.406 0.103 0.604 0.11 0.421 0.33 0.991 0.776 1.564 0.853 1.096 2.728 2.45 6.987 2.45s6.135-1.354 6.987-2.448c0.347-0.442 0.614-0.966 0.767-1.536l0.007-0.030c0.053-0.198 0.087-0.4 0.105-0.604v-0.229c-0.001-0.669-0.542-1.211-1.21-1.213h-13.31c0 0 0 0 0 0-0.668 0-1.21 0.542-1.21 1.21 0 0.001 0 0.002 0 0.003v-0 0.215z"></path>
    </symbol>
    <symbol id="icon-pet" viewBox="0 0 32 32">
      <path d="M6.467 29.333v-12.8l-0.367-0.366c-0.24-0.241-0.432-0.529-0.561-0.85l-0.006-0.017c-0.127-0.305-0.2-0.66-0.2-1.031 0-0.001 0-0.001 0-0.002v0c-0-0.003-0-0.007-0-0.011 0-0.724 0.293-1.38 0.767-1.856l-0 0 4.367-4.4h5.333l5.333-5.333 2.734 2.733c0.851 0.845 1.547 1.845 2.041 2.954l0.025 0.062c0.464 1.042 0.734 2.257 0.734 3.535 0 0.017-0 0.034-0 0.051v-0.003c0 0.014 0 0.031 0 0.049 0 1.278-0.27 2.494-0.757 3.592l0.022-0.057c-0.519 1.171-1.215 2.171-2.065 3.015l-2.735 2.734v8h-14.666zM9.133 26.667h9.334v-6.434l3.5-3.5c0.614-0.608 1.119-1.326 1.482-2.121l0.018-0.045c0.355-0.8 0.533-1.656 0.533-2.567 0-0.889-0.184-1.733-0.55-2.533-0.389-0.836-0.886-1.552-1.486-2.169l0.002 0.002-0.834-0.867-4.233 4.234h-5.333l-0.767 0.766 2.233 2.234c0.602 0.6 1.092 1.314 1.434 2.105l0.017 0.044c0.326 0.747 0.516 1.617 0.516 2.532 0 0.006 0 0.013-0 0.019v-0.001c0 0.006 0 0.014 0 0.021 0 0.913-0.184 1.782-0.516 2.574l0.016-0.044c-0.357 0.85-0.853 1.576-1.466 2.182l-0.001 0.001-3.9-3.9v7.467z"></path>
    </symbol>
    <symbol id="icon-phone" viewBox="0 0 32 32">
      <path d="M27.833 29.333c-3.466 0-6.727-0.655-9.782-1.966-3.056-1.312-5.723-3.106-8-5.383-2.279-2.278-4.079-4.945-5.4-8-1.323-3.056-1.984-6.328-1.984-9.817-0.023-0.4 0.11-0.75 0.4-1.051 0.289-0.3 0.644-0.45 1.066-0.45h5.2c0.4 0 0.745 0.15 1.034 0.45 0.288 0.3 0.433 0.662 0.433 1.084 0 0.978 0.067 1.9 0.2 2.767s0.344 1.689 0.633 2.466c0.111 0.245 0.134 0.495 0.067 0.75s-0.2 0.495-0.4 0.717l-3.333 3.333c0.955 1.956 2.31 3.811 4.066 5.567 1.756 1.755 3.645 3.155 5.667 4.2l3.333-3.333c0.2-0.2 0.434-0.334 0.7-0.4 0.267-0.067 0.534-0.045 0.8 0.066 0.709 0.24 1.567 0.454 2.449 0.602l0.101 0.014c0.878 0.145 1.784 0.218 2.717 0.218 0.422 0 0.784 0.155 1.084 0.466s0.45 0.69 0.45 1.134v5.1c0 0.4-0.145 0.744-0.434 1.033-0.263 0.268-0.629 0.433-1.034 0.433-0.012 0-0.023-0-0.035-0l0.002 0zM20.167 25.333c1 0.378 2.044 0.678 3.133 0.9 1.089 0.223 2.211 0.367 3.367 0.434v-2.867c-0.81-0.054-1.537-0.137-2.254-0.251l0.138 0.018c-0.827-0.129-1.553-0.303-2.255-0.529l0.104 0.029-2.233 2.266zM26.667 16c0-2.978-1.034-5.5-3.1-7.567-2.067-2.066-4.59-3.1-7.567-3.1v-2.666c1.844 0 3.578 0.35 5.2 1.049 1.622 0.7 3.033 1.65 4.233 2.85 1.18 1.185 2.141 2.59 2.816 4.147l0.034 0.087c0.7 1.622 1.050 3.355 1.050 5.2h-2.666zM21.333 16c0-1.467-0.522-2.722-1.566-3.767s-2.3-1.566-3.767-1.566v-2.667c2.222 0 4.111 0.778 5.667 2.333 1.555 1.557 2.333 3.445 2.333 5.667h-2.667zM6.667 11.767l2.2-2.234c-0.153-0.523-0.31-1.208-0.432-1.906l-0.019-0.127c-0.111-0.61-0.2-1.354-0.247-2.11l-0.003-0.057h-2.8c0.045 1.067 0.178 2.134 0.4 3.2s0.523 2.145 0.9 3.234z"></path>
    </symbol>
    <symbol id="icon-arrow" viewBox="0 0 41 32">
      <path d="M8.173 25.125c1.282-8.417 8.275-15.263 15.398-15.252 0.042 0.215 0.135 0.486 0.068 0.694-1.148 3.54 0.383 6.289 2.864 8.723 1.91 1.922 4.115 3.49 6.751 4.288 0.754 0.206 1.509 0.411 2.328 0.462 2.999 0.236 4.577-1.366 4.427-4.295-0.098-1.971-0.985-3.618-2.207-5.126-2.086-2.623-4.815-4.594-8.020-5.959-1.573-0.586-2.297-0.882-3.018-1.184l0.825 0.307c3.11-3.367 7.32-4.119 11.348-5.465-0.71-0.043-1.413-0.193-2.129-0.13-3.706 0.57-7.171 1.686-9.953 4.17-0.81 0.694-1.551 1.18-2.753 1.106-4.643-0.231-8.532 1.549-11.794 4.695-2.362 2.264-4.257 4.995-5.538 8.047l-0.059 0.158c-0.56 1.394-0.967 2.314-1.394 3.223l0.181-0.431c-13.228-22.569-14.579-24.729-15.931-26.887l11.843 20.266c-0.167 0.043-0.337 0.139-0.505 0.182-0.080 0.42-0.276 0.939-0.135 1.319 0.655 1.845 1.309 3.69 2.076 5.489 0.722 1.637 1.556 3.228 2.278 4.865 0.725 1.584 1.575 2.007 2.69 0.801 1.934-2.058 3.66-4.289 5.44-6.517 0.237-0.303 0.054-0.898 0.029-1.378-0.552 0.073-1.258-0.023-1.606 0.274-1.217 1.094-2.22 2.254-3.505 3.556zM25.816 9.903c5.294 1.226 9.294 3.913 11.688 8.678 0.484 1.039 0.843 2.335-0.188 3.068-0.687 0.489-2.004 0.514-2.926 0.352-3.516-0.746-6.129-2.817-8.263-5.549-1.47-1.948-1.838-3.988-0.312-6.55z"></path>
    </symbol>
    <symbol id="icon-paw" viewBox="0 0 31 32">
      <path d="M14.783 15.43c1.627 2.224 3.977 1.167 7.237 1.852 4.76 0.916 6.631-1.411 5.756-3.672-0.847-2.169-3.823-2.232-5.278-4.206s-0.676-5.069-2.453-6.533-4.449-0.203-4.929 4.83c-0.292 3.448-1.872 5.478-0.332 7.73zM17.311 21.977c0.688-2.436 2.548-4.139 4.038-3.609s2.213 2.917 1.465 5.473c-0.688 2.436-2.548 4.139-4.038 3.609s-2.126-2.945-1.465-5.473zM9.502 11.105c2.461 0.016 4.392-1.406 4.352-3.101s-2.059-3.058-4.492-2.983c-2.461-0.017-4.392 1.406-4.352 3.1 0.013 1.604 2.031 2.967 4.492 2.983zM9.695 20.149c1.842-1.982 4.363-2.689 5.603-1.495s0.769 3.833-1.073 5.815c-1.842 1.982-4.363 2.689-5.604 1.495-1.151-1.223-0.741-3.742 1.073-5.815zM8.973 18.846c2.361-1.249 3.743-3.469 2.958-5.094-0.757-1.535-3.287-1.812-5.736-0.533-2.36 1.249-3.743 3.468-2.958 5.093 0.758 1.535 3.376 1.783 5.736 0.533z"></path>
    </symbol>
    <symbol id="icon-hero-background-paw" viewBox="0 0 33 32">
      <path d="M17.34 16.558c1.808 2.111 0.588 4.23 0.65 7.651 0.068 4.976-2.525 6.534-4.481 5.216-1.927-1.247-1.594-4.376-3.325-6.106-1.624-1.852-4.604-1.724-5.71-3.852-1.077-2.057 0.628-4.437 5.538-3.978 3.283 0.329 5.383-0.991 7.327 1.069zM23.010 19.942c-2.525 0.211-4.3 1.802-4.104 3.442s2.635 2.717 5.13 2.436c2.525-0.211 4.329-1.732 4.104-3.442s-2.606-2.647-5.131-2.436zM13.979 10.276c-0.32 2.518-1.844 4.133-3.433 3.735s-2.636-2.959-2.221-5.43c0.32-2.519 1.844-4.133 3.433-3.735s2.636 2.959 2.221 5.43zM22.66 12.098c-2.257 1.437-3.491 3.714-2.518 5.298s3.631 1.684 5.888 0.246c2.257-1.437 3.491-3.714 2.518-5.298s-3.631-1.684-5.888-0.246zM22.327 11.041c-1.495 2.123-3.738 2.772-5.116 1.642s-1.134-3.73 0.362-5.852c1.496-2.123 3.739-2.772 5.116-1.642s1.134 3.73-0.362 5.852z"></path>
    </symbol>
  </defs>
</svg>
