<svg xmlns="http://www.w3.org/2000/svg" fill="none" viewBox="0 0 182 43">
  <path fill="#FCB62A" d="M20.907 24.936c.244 4.96 3.844 5.593 7.2 9.76 4.965 5.959 8.96 4.19 9.64-.108.64-4.13-2.85-7.076-3.081-11.49-.231-4.413 3.051-8.403 2.049-12.346-1.002-3.942-5.138-4.568-9.536 2.674-2.97 4.996-6.392 6.59-6.272 11.51Z"/>
  <path fill="#FF9F0E" d="M13.398 12.71c2.811 2.283 6.157 1.468 7.347-1.046 1.19-2.514-.248-6.92-3.094-9.045-2.811-2.283-6.157-1.468-7.347 1.046-1.155 2.354.283 6.761 3.094 9.044Z"/>
  <path fill="#FCB62A" d="M6.448 25.438c3.315.177 6.33-2.096 6.701-5.413.334-3.148-2.052-5.917-5.479-6.13-3.315-.177-6.331 2.096-6.702 5.413-.333 3.148 2.164 5.953 5.48 6.13Z"/>
  <path fill="#FA0" d="M8.024 41.266c3.013.066 6.022-2.515 6.435-5.866.375-3.18-1.555-6.735-4.668-6.833-3.013-.066-6.021 2.515-6.435 5.866-.375 3.18 1.656 6.768 4.668 6.833Z"/>
  <path fill="#FF9F0E" d="M47.565 33.5V15.996l-.64-3.2.64-1.952H57.1c1.536 0 3.008.15 4.416.448 1.43.277 2.698.81 3.808 1.6 1.13.79 2.016 1.92 2.656 3.392.661 1.472.992 3.381.992 5.728s-.33 4.277-.992 5.792c-.662 1.493-1.558 2.656-2.688 3.488a10.137 10.137 0 0 1-3.84 1.728c-1.408.32-2.859.48-4.352.48h-9.536Zm5.824-5.12H57.1c1.877 0 3.317-.49 4.32-1.472 1.002-1.003 1.504-2.635 1.504-4.896s-.512-3.83-1.536-4.704c-1.003-.896-2.432-1.344-4.288-1.344h-3.712V28.38Zm28.994 5.44c-1.366 0-2.699-.16-4-.48a9.215 9.215 0 0 1-3.488-1.792c-1.024-.853-1.846-2.037-2.464-3.552-.598-1.515-.896-3.456-.896-5.824s.298-4.31.896-5.824c.618-1.515 1.44-2.699 2.464-3.552a8.853 8.853 0 0 1 3.488-1.76 15.701 15.701 0 0 1 4-.512c1.365 0 2.688.17 3.968.512a8.914 8.914 0 0 1 3.488 1.792c1.045.853 1.866 2.037 2.464 3.552.618 1.515.928 3.445.928 5.792s-.31 4.277-.928 5.792c-.598 1.515-1.419 2.699-2.464 3.552a8.914 8.914 0 0 1-3.488 1.792 15.35 15.35 0 0 1-3.968.512Zm0-5.44c1.578 0 2.773-.47 3.584-1.408.81-.939 1.216-2.539 1.216-4.8 0-2.261-.406-3.861-1.216-4.8-.81-.939-2.006-1.408-3.584-1.408-1.558 0-2.742.48-3.552 1.44s-1.216 2.55-1.216 4.768c0 2.219.405 3.808 1.216 4.768.81.96 1.994 1.44 3.552 1.44Zm25.53 5.44c-1.643 0-3.2-.16-4.672-.48-1.451-.341-2.742-.939-3.872-1.792-1.11-.853-1.984-2.037-2.624-3.552-.64-1.515-.96-3.456-.96-5.824 0-2.283.341-4.17 1.024-5.664.682-1.515 1.59-2.71 2.72-3.584a10.73 10.73 0 0 1 3.808-1.856 16.993 16.993 0 0 1 4.256-.544c1.045 0 1.952.053 2.72.16.768.107 1.504.245 2.208.416l4.352 2.528-2.24 4.96-7.072-2.496a6.688 6.688 0 0 0-2.848.608c-.854.405-1.547 1.056-2.08 1.952-.512.875-.768 2.059-.768 3.552 0 2.41.533 4.107 1.6 5.088 1.088.96 2.57 1.44 4.448 1.44.96 0 1.706-.043 2.24-.128a68.25 68.25 0 0 0 1.28-.256v-2.432h-4.064V21.18h10.176l.352 1.92-.704 2.656v6.72c-.235.085-.768.235-1.6.448-.811.213-1.878.416-3.2.608-1.302.192-2.795.288-4.48.288Zm20.423-.08c-.944 0-1.896-.136-2.856-.408a7.468 7.468 0 0 1-2.616-1.368c-.784-.656-1.416-1.544-1.896-2.664-.48-1.136-.72-2.568-.72-4.296 0-1.744.336-3.264 1.008-4.56.688-1.312 1.624-2.336 2.808-3.072 1.184-.736 2.528-1.104 4.032-1.104.72 0 1.408.064 2.064.192.672.128 1.184.272 1.536.432l2.664 2.424-1.68 2.52-4.104-2.112c-.896 0-1.704.216-2.424.648-.72.432-1.296 1.048-1.728 1.848-.416.784-.624 1.712-.624 2.784 0 1.232.216 2.248.648 3.048.448.8 1.056 1.4 1.824 1.8.768.384 1.624.576 2.568.576.96 0 1.784-.08 2.472-.24a10.872 10.872 0 0 0 1.728-.576 9.263 9.263 0 0 0 1.056-.576V32.3c-.448.304-1.136.624-2.064.96-.912.32-2.144.48-3.696.48Zm8.808-.24-.48-1.44.48-2.4V16.508h3.36v9.864l-.24 4.008h.48l5.256-.24 1.704-.24 1.632 2.064-1.176 1.536h-11.016Zm19.681.24c-1.648 0-2.944-.272-3.888-.816-.928-.544-1.592-1.344-1.992-2.4-.384-1.072-.576-2.376-.576-3.912v-6.24l.024-2.424-.024-1.44h3.408v10.344c0 1.12.224 2.032.672 2.736.448.688 1.24 1.032 2.376 1.032s1.936-.32 2.4-.96c.48-.656.72-1.592.72-2.808V16.508h3.336v10.104c0 1.504-.192 2.792-.576 3.864-.368 1.056-1.024 1.864-1.968 2.424-.928.56-2.232.84-3.912.84Zm9.569-.24V20.348l-.48-2.4.48-1.44h6.24c1.216 0 2.264.144 3.144.432.896.272 1.592.72 2.088 1.344.496.624.744 1.456.744 2.496 0 .64-.112 1.248-.336 1.824a3.098 3.098 0 0 1-1.08 1.416c1.008.352 1.776.88 2.304 1.584.528.704.792 1.64.792 2.808 0 1.776-.496 3.072-1.488 3.888-.992.8-2.488 1.2-4.488 1.2h-7.92Zm3.36-10.152h3.312c1.344 0 2.016-.592 2.016-1.776 0-.592-.136-1.064-.408-1.416-.272-.352-.808-.528-1.608-.528h-3.312v3.72Zm0 7.032h4.32c.848 0 1.464-.192 1.848-.576.4-.384.6-.92.6-1.608 0-.656-.216-1.152-.648-1.488-.416-.336-1.096-.504-2.04-.504h-4.08v4.176Z"/>
</svg>
