<svg xmlns="http://www.w3.org/2000/svg" fill="none" viewBox="0 0 96 96">
  <path fill="#181817" d="M67.245 57.39c-2.245-.442-4.466 1.023-5.405 3.563a7.248 7.248 0 0 0-.376 1.52 25.757 25.757 0 0 0 6.09-5.022l-.31-.06Zm2.083-24.61c4.21-3.36 5.402-10.27 2.663-15.432-2.739-5.163-8.372-6.624-12.581-3.265-4.21 3.36-5.402 10.269-2.663 15.431 2.738 5.163 8.371 6.625 12.58 3.265Zm16.692 2.815c-3.933-5.973-9.275-6.042-12.226-3.605-2.95 2.435-2.734 8.622-.27 12.776.111.229.23.467.347.703.849-3.16.968-5.452.97-5.484.086-2.68 1.859-4.773 4.036-4.773.05 0 .101.001.151.004 2.228.1 3.973 2.404 3.891 5.136v.009l-.002.044c-.066 1.53-.493 7.03-3.2 13.567-.248.6-.538 1.257-.872 1.953a76.506 76.506 0 0 1 1.611 4.069l-3.448-.68c-2.332 3.832-5.9 8.179-11.212 11.585L81.21 86.548c.943.957 2.085 1.424 3.22 1.424 1.453 0 2.895-.766 3.895-2.246 1.779-2.637 1.48-6.544-.67-8.726l-3.707-3.765 1.199.237c.371.073.739.091 1.1.065.87.051 1.894-.322 3.154-.86 3.498-1.495 7.464-4.132 6.433-12.165-2.08-10.793-4.447-16.665-9.815-24.917Z"/>
  <path fill="#181817" d="M78.996 53.522c2.91-7.026 3.098-12.841 3.116-13.207.065-2.19-1.327-4.029-3.112-4.109-1.783-.081-3.28 1.623-3.35 3.808-.006.252-.276 5.034-2.638 10.423-2.387 5.397-6.678 11.46-15.366 15.009-1.696.686-2.618 2.928-2.057 5.01.448 1.666 1.713 2.723 3.07 2.723.336 0 .678-.064 1.014-.2 10.622-4.264 16.44-12.442 19.323-19.457ZM36.403 72.388c1.47.342 3.238.907 3.706 1.515 1.26 1.63 1.874 4.996 3.507 5.232 1.141.164 1.542.134 2.955-.985 1.395-1.106.07-5.415-.263-7.07-.472-2.35.654-4.93.671-5.088.014-.13.984-2.625 3.788-1.678.979.333.405-1.886-1.128-2.996-1.823-1.317-3.142-.703-4.475.58-2.573-2.416-6.605-1.945-8.897-.893a26.728 26.728 0 0 0-.508 5.233 30.05 30.05 0 0 0 .644 6.15Zm6.534-5.212c.599-.5 1.416-.31 1.825.424.409.735.254 1.738-.345 2.239-.601.5-1.418.311-1.827-.424-.408-.735-.254-1.738.347-2.239Zm-8.322-6.226c-.597.01-1.165-.012-1.707-.063a1.659 1.659 0 0 0-.592-.081c-.013 0-.024.006-.037.007-8.246-1.15-10.49-8.8-20.125-.86-2.91-1.049-6.379-3.303-9.006-8.114-.531-.968-1.6-1.221-2.387-.57-.79.65-.999 1.96-.466 2.929 2.5 4.53 5.589 7.183 8.487 8.738-.034.087-.07.19-.105.29-.743 1.37-1.325 3.177-1.703 5.584-.053.352-2.412 18.818 1.293 18.818s4.723-13.97 6.792-15.758c.291.032 5.788 7.096 10.483 6.208 1.1-.21 2.589-1.042 3.83-1.928l2.03 9.972c.23 1.118 1.045 1.878 1.96 1.878.1 0 .2-.009.302-.028 1.032-.19 1.774-1.303 1.72-2.581l-.528-12.416a32.52 32.52 0 0 1-.714-6.737c0-1.646.132-3.432.474-5.289Zm18.036 24.387h-.51L51.1 81.379H39.434l-1.042 3.958h-.51c-.411 0-.745.409-.745.914 0 .504.334.913.744.913h14.77c.41 0 .745-.409.745-.913 0-.505-.334-.914-.745-.914Z"/>
</svg>
