<svg xmlns="http://www.w3.org/2000/svg" fill="none" viewBox="0 0 96 96">
  <path fill="#181817" d="m18.693 76.786 3.46-11.635-1.258-3.43c-2.674-.448-4.877-1.79-6.293-3.58l-4.72 15.661-9.28 15.663c-1.259 2.088-.472 4.773 1.73 5.966 2.203 1.194 5.035.448 6.293-1.64l9.754-16.11c.157-.298.315-.596.315-.894ZM3.271 44.293c1.448.76 3.38.152 4.184-1.367l7.24-13.973 1.287-.91.644-3.798c.322-1.974 1.287-3.797 2.574-5.315l-8.688 5.315c-.483.304-.805.76-1.127 1.215L1.823 40.192c-.804 1.519-.16 3.341 1.448 4.1Zm27.744-28.068c4.895 0 8.862-3.632 8.862-8.112S35.909 0 31.015 0s-8.861 3.632-8.861 8.113c0 4.48 3.967 8.112 8.861 8.112Zm55.893 60.547s.157.149.157.298c1.255-.747 1.726-2.39 1.726-2.39 4.708 1.344 5.65-2.84 5.65-2.84.627-1.194-2.512-2.39-2.512-2.39-.157-2.988-3.766-3.885-3.766-3.885-1.726-1.494-1.255 0-1.255 0-1.726-.149-2.825.449-2.825.449-2.825-2.54-4.55 1.345-4.55 1.345-.472 0-.785.149-1.256.149 2.825 3.586 5.806 6.724 8.63 9.264Zm4.378 9.574c-.815-.757-6.683-4.085-6.683-4.085 1.304-.605 1.467-3.178 1.467-4.085-3.096-2.724-6.356-6.204-9.616-10.138-1.63.303-12.386 4.54-22.817.152-3.912-1.665-7.334.756-7.334.756-2.934 3.178-1.63 8.322-1.63 8.322l4.074-4.085c2.119-1.513 2.934-1.21 3.423-.454.326.605.163 1.362-.326 1.967-3.912 3.782-2.608 7.716-2.608 7.716l-5.541 4.539c-2.119 2.118.326 3.783.326 3.783.489-1.665 4.4-4.237 4.4-4.237-.163 1.967.815 2.42.815 2.42 2.77-.756 2.119-3.328 2.119-3.328 4.4-.151 4.89-1.967 4.89-1.967 4.4.757 6.519-1.966 6.519-1.966 1.14 1.966 11.083 4.085 11.083 4.085.652.302 4.4 7.262 4.4 7.262.815.151 1.63 1.21 1.63 1.21 1.793 1.06 5.541-.15 5.541-.15-.326-1.363-2.282-1.363-2.282-1.363-4.4 0-3.748-6.808-3.748-6.808.163-.908 3.585.756 3.585.756l7.498 2.573c3.748 1.815 5.378-.303 5.378-.303 1.141-1.664-4.563-2.572-4.563-2.572Zm-36.64-53.305c3.723 7.534 11.654 22.452 21.85 34.565.486-.148 1.133-.148 1.78-.296-.16-.148-.323-.295-.485-.59-10.197-11.965-18.127-26.884-21.688-34.27-.648.444-1.295.591-1.457.591Z"/>
  <path fill="#181817" d="M55.441 31.3c1.63-.598 2.606-2.245 1.955-3.741-.652-1.497-2.444-2.395-4.072-1.796l-8.797 2.843c-10.262-8.83-10.75-10.328-14.823-10.926-5.213-.749-10.1 2.694-10.914 7.484L14.88 50.31c-.814 4.79 2.933 9.28 8.145 10.029h.489l4.235 11.675-8.633 11.675c-1.466 1.946-.977 4.79 1.303 6.137 2.118 1.347 5.213.898 6.679-1.198l10.1-13.471c.813-1.197 1.14-2.544.65-3.892l-5.375-14.818c.815-1.048 1.466-2.395 1.63-3.742l3.583-22.302 4.072 3.592a3.188 3.188 0 0 0 3.258.599L55.441 31.3Z"/>
</svg>
